<svg width="29" height="29" viewBox="0 0 29 29" fill="none" xmlns="http://www.w3.org/2000/svg">
<path d="M14.5 14.5L7.6125 9.33438C7.50059 9.24936 7.40971 9.13978 7.34685 9.01407C7.284 8.88837 7.25087 8.74991 7.25 8.60938V4.53125C7.25 4.2909 7.34548 4.06039 7.51543 3.89043C7.68539 3.72048 7.9159 3.625 8.15625 3.625H20.8438C21.0841 3.625 21.3146 3.72048 21.4846 3.89043C21.6545 4.06039 21.75 4.2909 21.75 4.53125V8.56406C21.7491 8.7046 21.716 8.84306 21.6531 8.96876C21.5903 9.09446 21.4994 9.20405 21.3875 9.28906L14.5 14.5Z" stroke="black" stroke-width="2" stroke-linecap="round" stroke-linejoin="round"/>
<path d="M14.5 14.5L7.6125 19.6656C7.50059 19.7506 7.40971 19.8602 7.34685 19.9859C7.284 20.1116 7.25087 20.2501 7.25 20.3906V24.4688C7.25 24.7091 7.34548 24.9396 7.51543 25.1096C7.68539 25.2795 7.9159 25.375 8.15625 25.375H20.8438C21.0841 25.375 21.3146 25.2795 21.4846 25.1096C21.6545 24.9396 21.75 24.7091 21.75 24.4688V20.4359C21.7491 20.2954 21.716 20.1569 21.6531 20.0312C21.5903 19.9055 21.4994 19.796 21.3875 19.7109L14.5 14.5Z" stroke="black" stroke-width="2" stroke-linecap="round" stroke-linejoin="round"/>
<path d="M7.25 7.25H21.75" stroke="black" stroke-width="2" stroke-linecap="round" stroke-linejoin="round"/>
</svg>
