<svg width="34" height="41" viewBox="0 0 34 41" fill="none" xmlns="http://www.w3.org/2000/svg">
<path d="M16.9111 35.9778C13.9662 35.9778 11.5703 33.5864 11.5703 30.6461H12.5548C12.5548 33.044 14.509 34.995 16.9111 34.995C19.3131 34.995 21.2673 33.0441 21.2673 30.6461H22.2518C22.2522 33.586 19.856 35.9778 16.9111 35.9778Z" fill="black" stroke="black" stroke-width="0.5"/>
<path d="M16.912 39.7558C11.8803 39.7558 7.78711 35.6696 7.78711 30.6465H8.77159C8.77159 35.1276 12.4232 38.7731 16.912 38.7731C21.4011 38.7731 25.0528 35.1277 25.0528 30.6465H26.0372C26.0372 35.6696 21.9437 39.7558 16.9124 39.7558H16.912Z" fill="black" stroke="black" stroke-width="0.5"/>
<path d="M12.5558 30.6466H11.5713V22.52H8.77159V30.6466H7.78711V21.5373H12.5558V30.6466Z" fill="black" stroke="black" stroke-width="0.5"/>
<path d="M26.0366 30.6466H25.0518V22.52H22.2524V30.6466H21.2676V21.5373H26.0366V30.6466Z" fill="black" stroke="black" stroke-width="0.5"/>
<path d="M8.2793 26.5614H12.0635V27.5442H8.2793V26.5614Z" fill="black" stroke="black" stroke-width="0.5"/>
<path d="M21.7588 26.5614H25.5437V27.5442H21.7588V26.5614Z" fill="black" stroke="black" stroke-width="0.5"/>
<path d="M10.2173 11.7662C8.84136 11.7662 7.65118 10.8334 7.32319 9.49721C7.13365 8.72452 7.25658 7.9251 7.66968 7.24497C8.08277 6.56518 8.73661 6.08664 9.50994 5.89708C9.74379 5.84017 9.98313 5.81104 10.2218 5.81104C11.5977 5.81104 12.7879 6.74382 13.1166 8.08004C13.5074 9.67479 12.527 11.2897 10.9302 11.6805C10.6954 11.7367 10.456 11.7662 10.2174 11.7662L10.2173 11.7662ZM10.2211 6.7938C10.0611 6.7938 9.9007 6.81334 9.74342 6.85173C9.22559 6.97857 8.78742 7.29944 8.51069 7.75468C8.23392 8.20993 8.15185 8.74609 8.2789 9.26308C8.49833 10.1581 9.29529 10.7831 10.217 10.7831C10.377 10.7831 10.5374 10.7635 10.6947 10.7251C11.7643 10.4632 12.4216 9.38163 12.1596 8.31352C11.9398 7.41917 11.1428 6.79389 10.2211 6.79389L10.2211 6.7938Z" fill="black" stroke="black" stroke-width="0.5"/>
<path d="M6.98305 18.3718L6.96004 17.7702C6.86149 15.2293 8.59874 12.9431 11.0903 12.334C11.5151 12.2304 11.9502 12.1773 12.3835 12.1773C14.4552 12.1773 16.3709 13.3822 17.2651 15.2475L17.5271 15.7929L6.98305 18.3718ZM12.3839 13.1597C12.0289 13.1597 11.6731 13.2029 11.3246 13.2879C9.48878 13.737 8.15267 15.2974 7.96384 17.1198L16.0726 15.1361C15.2602 13.9191 13.8712 13.1597 12.3839 13.1597V13.1597Z" fill="black" stroke="black" stroke-width="0.5"/>
<path d="M21.3081 6.95526C21.1152 6.95526 20.9208 6.93607 20.7299 6.8987C19.1166 6.5816 18.062 5.01391 18.3797 3.4031C18.6545 2.01098 19.8838 1 21.303 1C21.4964 1 21.6904 1.0192 21.881 1.05588C23.4945 1.37298 24.5491 2.94067 24.2314 4.55148C23.9571 5.94465 22.7278 6.95528 21.3081 6.95528L21.3081 6.95526ZM21.3026 1.98321C20.3522 1.98321 19.529 2.65991 19.3453 3.5927C19.1327 4.67152 19.8391 5.72226 20.9197 5.93446C21.0478 5.95948 21.1783 5.97216 21.3078 5.97216C22.2582 5.97216 23.0814 5.29477 23.2651 4.36232C23.4777 3.2835 22.7713 2.23277 21.6907 2.02057C21.5629 1.99588 21.4321 1.9832 21.3026 1.9832V1.98321Z" fill="black" stroke="black" stroke-width="0.5"/>
<path d="M24.9809 13.4012L14.3291 11.3101L14.5616 10.7547C15.4008 8.75065 17.3547 7.45551 19.5397 7.45551C19.8937 7.45551 20.2502 7.49047 20.6004 7.55903C23.1038 8.05062 24.9423 10.2528 24.9735 12.7965L24.9809 13.4012ZM15.7453 10.5867L23.9389 12.1952C23.6587 10.3821 22.255 8.88572 20.4106 8.52371C20.1232 8.46715 19.8302 8.4387 19.5397 8.4387C17.9608 8.4387 16.53 9.26484 15.7453 10.5867Z" fill="black" stroke="black" stroke-width="0.5"/>
<path d="M28.5203 15.2914C28.1931 15.2914 27.874 15.2245 27.5726 15.0929C26.3759 14.5715 25.8278 13.1749 26.3501 11.9802C26.7282 11.118 27.5805 10.562 28.5221 10.562C28.849 10.562 29.168 10.6285 29.4691 10.7602C30.0491 11.0131 30.4955 11.4763 30.7263 12.0645C30.957 12.6524 30.9443 13.2952 30.6912 13.8742C30.3145 14.7346 29.4619 15.2913 28.5204 15.2913L28.5203 15.2914ZM28.522 11.5445C27.9716 11.5445 27.4729 11.8699 27.2526 12.3734C26.9473 13.0714 27.2677 13.8876 27.9668 14.1924C28.143 14.2695 28.3291 14.3083 28.52 14.3083C29.0705 14.3083 29.5688 13.983 29.7892 13.4794C29.9376 13.1414 29.9444 12.7657 29.8095 12.4221C29.6752 12.0786 29.4136 11.8078 29.075 11.6604C28.8988 11.5833 28.7127 11.5446 28.5221 11.5446L28.522 11.5445Z" fill="black" stroke="black" stroke-width="0.5"/>
<path d="M29.777 20.6281L22.0078 17.2391L22.3553 16.7472C23.1355 15.6412 24.4139 14.981 25.7741 14.981C26.3576 14.981 26.9269 15.1003 27.4667 15.3358C29.2812 16.127 30.3048 18.104 29.9 20.0361L29.777 20.6281ZM23.564 16.8455L29.0044 19.2181C29.0168 17.952 28.2695 16.7577 27.0732 16.2363C25.886 15.719 24.4689 15.985 23.564 16.8454V16.8455Z" fill="black" stroke="black" stroke-width="0.5"/>
<path d="M1.70432 26.4702C0.451983 24.6694 0.917615 22.0918 2.72071 20.842C3.47686 20.3181 4.02043 19.8523 4.2162 19.2832C4.43975 18.6325 4.19251 17.8043 3.46005 16.7519C2.78426 15.7804 2.56172 14.8702 2.79834 14.0468C3.13521 12.8757 4.28452 12.3718 4.3333 12.351L4.72374 13.2532C4.71584 13.2566 3.94527 13.6035 3.74269 14.3252C3.59503 14.8497 3.77222 15.4777 4.26842 16.1918C5.1918 17.5199 5.47953 18.6357 5.14716 19.6031C4.83296 20.5166 4.01982 21.1388 3.28184 21.6503C1.91689 22.5968 1.5642 24.5481 2.5123 25.9107L1.70432 26.4702Z" fill="black" stroke="black" stroke-width="0.5"/>
<path d="M30.7599 29.6138L30.3715 28.7105L30.5659 29.162L30.3681 28.7119C30.3725 28.7098 30.7928 28.5171 30.8983 28.138C30.9766 27.8559 30.8711 27.5052 30.5861 27.0945C29.9605 26.1953 29.7695 25.4294 30.0013 24.7531C30.2194 24.1182 30.7664 23.6982 31.2616 23.3554C31.9697 22.8645 32.3182 21.7507 31.7097 20.8755L32.5184 20.3147C33.3741 21.5457 33.0558 23.3077 31.8234 24.1624C31.368 24.4785 31.0425 24.7531 30.933 25.0722C30.81 25.4311 30.9611 25.909 31.3948 26.5339C31.8591 27.2013 32.0098 27.8341 31.8429 28.4146C31.6087 29.2301 30.8461 29.577 30.7599 29.6137L30.7599 29.6138Z" fill="black" stroke="black" stroke-width="0.5"/>
</svg>
