<svg width="27" height="25" viewBox="0 0 27 25" fill="none" xmlns="http://www.w3.org/2000/svg">
<path d="M1.00001 8.57508V2.00008C0.999993 1.84196 1.03748 1.68608 1.10939 1.54525C1.1813 1.40442 1.28558 1.28265 1.41367 1.18993C1.54176 1.09722 1.69002 1.0362 1.84627 1.01189C2.00251 0.987578 2.1623 1.00067 2.31251 1.05008L4.00001 1.61258L6.00001 5.36258L10 6.61258V2.00008C9.99999 1.84196 10.0375 1.68608 10.1094 1.54525C10.1813 1.40442 10.2856 1.28265 10.4137 1.18993C10.5418 1.09722 10.69 1.0362 10.8463 1.01189C11.0025 0.987578 11.1623 1.00067 11.3125 1.05008L13 1.61258L17 8.61258L23.075 10.3001C23.9169 10.5328 24.6592 11.0356 25.1876 11.7312C25.716 12.4267 26.0015 13.2766 26 14.1501V18.6126L3.92501 12.4251C3.08306 12.1923 2.34085 11.6895 1.81241 10.994C1.28397 10.2984 0.998547 9.4486 1.00001 8.57508V8.57508Z" stroke="black" stroke-width="2" stroke-linecap="round" stroke-linejoin="round"/>
<path d="M7 24H25" stroke="black" stroke-width="2" stroke-linecap="round" stroke-linejoin="round"/>
</svg>
