<svg width="100" height="142" viewBox="0 0 100 142" fill="none" xmlns="http://www.w3.org/2000/svg">
<path d="M30.5791 73.6011L85.3281 90.8517" stroke="#48CFB6" stroke-width="4.72681" stroke-linecap="round" stroke-linejoin="round"/>
<path d="M61.6017 53.2836L64.1998 25.7198C64.3109 24.558 64.6804 23.4358 65.2813 22.4353C65.8821 21.4347 66.6991 20.5812 67.6724 19.9372C68.6457 19.2932 69.7507 18.875 70.9065 18.7132C72.0624 18.5514 73.2397 18.65 74.3525 19.002L80.7606 21.0211C81.8741 21.3706 82.8954 21.9647 83.7497 22.7599C84.6039 23.555 85.2696 24.5312 85.6979 25.6168C86.1262 26.7024 86.3064 27.8701 86.2251 29.0344C86.1439 30.1986 85.8033 31.33 85.2284 32.3456L71.556 56.4201" stroke="#48CFB6" stroke-width="4.72681" stroke-linecap="round" stroke-linejoin="round"/>
<path d="M91.465 62.6931L41.6932 47.0107C40.3188 46.5776 38.8535 47.3407 38.4205 48.7152L34.4999 61.1581C34.0668 62.5325 34.8299 63.9978 36.2043 64.4308L85.9761 80.1132C87.3505 80.5463 88.8158 79.7832 89.2488 78.4088L93.1694 65.9658C93.6025 64.5914 92.8394 63.1262 91.465 62.6931Z" stroke="#48CFB6" stroke-width="4.72681" stroke-linecap="round" stroke-linejoin="round"/>
<path d="M36.4615 110.925L27.8245 123.83L21.1854 119.817" stroke="#48CFB6" stroke-width="3.0625" stroke-linecap="round" stroke-linejoin="round"/>
<path d="M33.2338 135.175C43.1394 132.969 49.3813 123.151 47.1754 113.246C44.9696 103.34 35.1513 97.098 25.2457 99.3038C15.3401 101.51 9.09824 111.328 11.3041 121.234C13.5099 131.139 23.3282 137.381 33.2338 135.175Z" stroke="#48CFB6" stroke-width="3.0625" stroke-linecap="round" stroke-linejoin="round"/>
</svg>
