<svg width="122" height="139" viewBox="0 0 122 139" fill="none" xmlns="http://www.w3.org/2000/svg">
<path d="M110.095 50.0972L99.8421 52.1781L94.1282 26.6238L104.511 24.4992C105.284 24.3346 106.091 24.4826 106.756 24.9107C107.421 25.3388 107.889 26.0124 108.059 26.7846L112.447 46.4487C112.537 46.8429 112.547 47.2512 112.478 47.6496C112.408 48.0479 112.259 48.4283 112.04 48.7682C111.82 49.1082 111.536 49.4009 111.202 49.6291C110.868 49.8573 110.492 50.0165 110.095 50.0972V50.0972Z" stroke="#32A28C" stroke-width="6.06658" stroke-linecap="round" stroke-linejoin="round"/>
<path d="M35.4813 34.5402L27.652 27.5749C27.3494 27.3109 27.1031 26.9887 26.9275 26.6275C26.7519 26.2663 26.6508 25.8736 26.6301 25.4725C26.6094 25.0715 26.6695 24.6704 26.8069 24.293C26.9444 23.9157 27.1563 23.5698 27.43 23.276L41.0617 8.44016C41.5956 7.85717 42.3361 7.50567 43.1254 7.46054C43.9147 7.41541 44.6904 7.68021 45.2873 8.19854L53.2167 15.2299L35.4813 34.5402Z" stroke="#32A28C" stroke-width="6.06658" stroke-linecap="round" stroke-linejoin="round"/>
<path d="M99.8418 52.178L92.137 57.4932L75.048 67.3595C74.5886 67.6046 74.0767 67.7347 73.5561 67.7388C73.0355 67.7428 72.5216 67.6207 72.0585 67.3828L52.2394 56.3806C51.8804 56.1684 51.5689 55.8845 51.3245 55.5466L35.4814 34.5402" stroke="#32A28C" stroke-width="6.06658" stroke-linecap="round" stroke-linejoin="round"/>
<path d="M92.1379 57.4937L79.1636 41.4561L73.5336 43.7159C71.0964 44.6876 68.4105 44.8456 65.8762 44.1666C63.3418 43.4875 61.0948 42.0076 59.47 39.9476L57.8946 37.916C57.6283 37.5722 57.4381 37.1757 57.3365 36.7528C57.2349 36.3299 57.2243 35.8902 57.3054 35.4629C57.3865 35.0356 57.5575 34.6304 57.8069 34.2741C58.0564 33.9178 58.3786 33.6186 58.7524 33.3962L76.9461 22.923C77.2877 22.7269 77.6646 22.6001 78.0553 22.5499C78.4459 22.4996 78.8427 22.5269 79.2228 22.6302L94.1288 26.6243" stroke="#32A28C" stroke-width="6.06658" stroke-linecap="round" stroke-linejoin="round"/>
<path d="M53.438 15.2892L73.6982 14.8299C74.4171 14.8173 75.117 15.0605 75.6733 15.5161L86.8045 24.6615" stroke="#32A28C" stroke-width="6.06658" stroke-linecap="round" stroke-linejoin="round"/>
<path d="M54.0201 70.832L43.7421 65.0947C43.32 64.8728 42.9615 64.5471 42.7003 64.1482L36.3467 54.7521" stroke="#32A28C" stroke-width="6.06658" stroke-linecap="round" stroke-linejoin="round"/>
<path d="M19.8223 112.438L13.3754 93.5639C13.2256 93.1253 13.2562 92.6452 13.4604 92.2291C13.6646 91.813 14.0257 91.4951 14.4643 91.3453L45.8858 80.6123C46.3244 80.4624 46.8046 80.493 47.2207 80.6972C47.6367 80.9014 47.9547 81.2625 48.1045 81.7011L58.8375 113.123C58.9873 113.561 58.9567 114.041 58.7525 114.457C58.5483 114.874 58.1872 115.191 57.7486 115.341L43.6089 120.171" stroke="#32A18C" stroke-width="3.49516" stroke-linecap="round" stroke-linejoin="round"/>
<path d="M37.8002 108.305L29.0893 126.054L20.2147 121.698" stroke="#32A18C" stroke-width="3.49516" stroke-linecap="round" stroke-linejoin="round"/>
</svg>
