<svg width="105" height="143" viewBox="0 0 105 143" fill="none" xmlns="http://www.w3.org/2000/svg">
<path d="M55.4894 65.6751C61.1575 64.1564 64.5212 58.3303 63.0024 52.6622C61.4837 46.9941 55.6576 43.6305 49.9895 45.1492C44.3214 46.668 40.9578 52.4941 42.4765 58.1621C43.9953 63.8302 49.8214 67.1939 55.4894 65.6751Z" stroke="#3D81AF" stroke-width="5.3125" stroke-linecap="round" stroke-linejoin="round"/>
<path d="M42.1572 77.4973C43.3092 74.6271 45.1137 72.0645 47.4278 70.0126C49.7418 67.9606 52.5018 66.4756 55.4892 65.6751C58.4766 64.8747 61.6093 64.7807 64.6393 65.4008C67.6693 66.0208 70.5133 67.3378 72.9461 69.2474" stroke="#3D81AF" stroke-width="5.3125" stroke-linecap="round" stroke-linejoin="round"/>
<path d="M85.2712 74.1946L70.1465 17.7484C69.7668 16.3313 68.3103 15.4904 66.8932 15.8701L20.7099 28.2449C19.2929 28.6246 18.452 30.0811 18.8317 31.4981L33.9564 87.9444C34.3361 89.3614 35.7926 90.2024 37.2096 89.8227L83.393 77.4479C84.81 77.0682 85.6509 75.6117 85.2712 74.1946Z" stroke="#3D81AF" stroke-width="5.3125" stroke-linecap="round" stroke-linejoin="round"/>
<path d="M36.2891 35.0704L56.815 29.5705" stroke="#3D81AF" stroke-width="5.3125" stroke-linecap="round" stroke-linejoin="round"/>
<path d="M68.5817 120.521C73.6752 121.35 78.4759 117.893 79.3044 112.799C80.1328 107.706 76.6754 102.905 71.5819 102.076C66.4884 101.248 61.6878 104.705 60.8593 109.799C60.0308 114.892 63.4882 119.693 68.5817 120.521Z" stroke="#3D81AF" stroke-width="2.875" stroke-miterlimit="10"/>
<path d="M83.4803 104.358C84.3316 104.269 85.1907 104.293 86.0359 104.428C88.4819 104.825 90.6696 106.179 92.1178 108.189C93.5661 110.2 94.1562 112.704 93.7583 115.15C93.3605 117.596 92.0073 119.784 89.9964 121.232C87.9855 122.68 85.4816 123.27 83.0357 122.873" stroke="#3D81AF" stroke-width="2.875" stroke-linecap="round" stroke-linejoin="round"/>
<path d="M54.7325 125.077C56.5059 123.263 58.69 121.901 61.1004 121.108C63.5107 120.315 66.0766 120.113 68.5812 120.521C71.0858 120.928 73.4556 121.932 75.4903 123.448C77.5251 124.965 79.1651 126.948 80.2719 129.232" stroke="#3D81AF" stroke-width="2.875" stroke-linecap="round" stroke-linejoin="round"/>
<path d="M83.0361 122.873C85.5412 123.279 87.9116 124.282 89.9466 125.798C91.9816 127.314 93.6213 129.299 94.7269 131.583" stroke="#3D81AF" stroke-width="2.875" stroke-linecap="round" stroke-linejoin="round"/>
</svg>
