<svg width="110" height="129" viewBox="0 0 110 129" fill="none" xmlns="http://www.w3.org/2000/svg">
<path d="M27.3516 38.1477L56.731 31.7759" stroke="#6AC1E4" stroke-width="4.625" stroke-linecap="round" stroke-linejoin="round"/>
<path d="M29.3115 47.1876L58.691 40.8158" stroke="#6AC1E4" stroke-width="4.625" stroke-linecap="round" stroke-linejoin="round"/>
<path d="M31.2725 56.2274L60.6519 49.8556" stroke="#6AC1E4" stroke-width="4.625" stroke-linecap="round" stroke-linejoin="round"/>
<path d="M63.9595 16.0106L14.2404 26.7937C12.9923 27.0644 12.1999 28.2956 12.4706 29.5438L21.2931 70.2231C21.5638 71.4712 22.7951 72.2636 24.0432 71.9929L73.7623 61.2098C75.0105 60.9391 75.8029 59.7078 75.5322 58.4597L66.7096 17.7804C66.4389 16.5323 65.2077 15.7399 63.9595 16.0106Z" stroke="#6AC1E4" stroke-width="4.625" stroke-linecap="round" stroke-linejoin="round"/>
<path d="M89.3153 96.1833L76.0837 104.584L71.5862 98.1751" stroke="#68BEE1" stroke-width="3" stroke-linecap="round" stroke-linejoin="round"/>
<path d="M76.4594 117.265C86.5057 119.261 96.2684 112.736 98.265 102.689C100.262 92.6429 93.7359 82.8802 83.6895 80.8836C73.6432 78.8871 63.8805 85.4127 61.884 95.4591C59.8874 105.505 66.413 115.268 76.4594 117.265Z" stroke="#68BEE1" stroke-width="3" stroke-linecap="round" stroke-linejoin="round"/>
</svg>
