<svg width="91" height="121" viewBox="0 0 91 121" fill="none" xmlns="http://www.w3.org/2000/svg">
<path d="M27.3511 38.1477L56.7306 31.7759" stroke="#6AC1E4" stroke-width="4.625" stroke-linecap="round" stroke-linejoin="round"/>
<path d="M29.312 47.1876L58.6915 40.8158" stroke="#6AC1E4" stroke-width="4.625" stroke-linecap="round" stroke-linejoin="round"/>
<path d="M31.2725 56.2274L60.6519 49.8556" stroke="#6AC1E4" stroke-width="4.625" stroke-linecap="round" stroke-linejoin="round"/>
<path d="M63.9595 16.0106L14.2404 26.7937C12.9923 27.0644 12.1999 28.2956 12.4706 29.5438L21.2931 70.2231C21.5638 71.4712 22.7951 72.2636 24.0432 71.9929L73.7623 61.2098C75.0105 60.9391 75.8029 59.7078 75.5322 58.4597L66.7096 17.7804C66.4389 16.5323 65.2077 15.7399 63.9595 16.0106Z" stroke="#6AC1E4" stroke-width="4.625" stroke-linecap="round" stroke-linejoin="round"/>
<path d="M60.1565 98.7668L76.6616 113.289C76.8523 113.458 77.0837 113.574 77.333 113.627C77.5823 113.679 77.841 113.666 78.0836 113.588C78.3262 113.51 78.5443 113.371 78.7167 113.183C78.8891 112.995 79.0097 112.766 79.0667 112.518L85.9698 82.3719C86.0277 82.1122 86.014 81.8418 85.9301 81.5893C85.8463 81.3369 85.6955 81.112 85.4938 80.9386C85.2921 80.7651 85.0471 80.6498 84.785 80.6047C84.5228 80.5597 84.2533 80.5867 84.0053 80.6828L50.1139 93.9934C48.7553 94.5258 48.9389 96.5086 50.371 96.8023L60.1565 98.7668Z" stroke="#6AC1E4" stroke-width="2.9375" stroke-linecap="round" stroke-linejoin="round"/>
<path d="M60.1562 98.7667L85.1434 80.7195" stroke="#6AC1E4" stroke-width="2.9375" stroke-linecap="round" stroke-linejoin="round"/>
<path d="M68.3996 106.019L62.6715 111.747C62.4671 111.954 62.2057 112.097 61.9204 112.155C61.6351 112.214 61.3389 112.186 61.0693 112.076C60.7997 111.966 60.5689 111.778 60.4064 111.536C60.2438 111.295 60.1567 111.01 60.1562 110.719V98.7668" stroke="#6AC1E4" stroke-width="2.9375" stroke-linecap="round" stroke-linejoin="round"/>
</svg>
