<svg width="99" height="135" viewBox="0 0 99 135" fill="none" xmlns="http://www.w3.org/2000/svg">
<path d="M50.4274 119.26L15.5741 128.274L8.0625 99.2295" stroke="#48CFB6" stroke-width="3" stroke-linecap="round" stroke-linejoin="round"/>
<path d="M40.7623 93.8712L29.9959 112.149L22.6847 107.843L14.0716 122.465" stroke="#48CFB6" stroke-width="3" stroke-linecap="round" stroke-linejoin="round"/>
<path d="M42.64 101.132L40.7621 93.8712L33.501 95.7491" stroke="#48CFB6" stroke-width="3" stroke-linecap="round" stroke-linejoin="round"/>
<path d="M54.623 51.281L72.2213 57.1923" stroke="#48CFB6" stroke-width="4.64113" stroke-linecap="round" stroke-linejoin="round"/>
<path d="M57.5771 42.4821L75.1754 48.3933" stroke="#48CFB6" stroke-width="4.64113" stroke-linecap="round" stroke-linejoin="round"/>
<path d="M82.5635 26.3953L93.5625 30.0899C94.1459 30.2858 94.6275 30.7055 94.9015 31.2567C95.1755 31.8078 95.2193 32.4451 95.0233 33.0286L79.5063 79.224C79.3103 79.8074 78.8906 80.2891 78.3395 80.563C77.7884 80.837 77.151 80.8808 76.5676 80.6848L36.9715 67.3845C36.3881 67.1886 35.9065 66.7689 35.6325 66.2178C35.3585 65.6666 35.3147 65.0293 35.5107 64.4458L51.0277 18.2504C51.2237 17.667 51.6434 17.1853 52.1945 16.9114C52.7456 16.6374 53.383 16.5936 53.9664 16.7896L64.9653 20.4841" stroke="#48CFB6" stroke-width="4.64113" stroke-linecap="round" stroke-linejoin="round"/>
<path d="M59.8117 28.5443L60.5506 26.3445C61.5304 23.4275 63.629 21.0191 66.3845 19.6492C69.1401 18.2794 72.3269 18.0603 75.244 19.0402C78.1611 20.02 80.5695 22.1185 81.9393 24.8741C83.3092 27.6297 83.5283 30.8165 82.5484 33.7336L81.8095 35.9334L59.8117 28.5443Z" stroke="#48CFB6" stroke-width="4.64113" stroke-linecap="round" stroke-linejoin="round"/>
</svg>
