<svg width="129" height="136" viewBox="0 0 129 136" fill="none" xmlns="http://www.w3.org/2000/svg">
<path d="M85.3425 27.7758C61.0988 21.3915 45.6555 40.6571 45.6555 40.6571C45.6555 40.6571 49.6071 65.0301 73.8508 71.4144C98.0945 77.7987 113.538 58.5331 113.538 58.5331C113.538 58.5331 109.586 34.1601 85.3425 27.7758Z" stroke="#32A18C" stroke-width="4.53786" stroke-linecap="round" stroke-linejoin="round"/>
<path d="M76.4036 61.7171C83.0983 63.48 89.9546 59.4821 91.7175 52.7874C93.4805 46.0927 89.4826 39.2364 82.7879 37.4734C76.0931 35.7104 69.2368 39.7084 67.4739 46.4031C65.7109 53.0978 69.7088 59.9541 76.4036 61.7171Z" stroke="#32A18C" stroke-width="4.53786" stroke-linecap="round" stroke-linejoin="round"/>
<path d="M19.8223 109.438L13.3754 90.5639C13.2256 90.1253 13.2562 89.6452 13.4604 89.2291C13.6646 88.813 14.0257 88.4951 14.4643 88.3453L45.8858 77.6123C46.3244 77.4624 46.8046 77.493 47.2207 77.6972C47.6367 77.9014 47.9547 78.2625 48.1045 78.7011L58.8375 110.123C58.9873 110.561 58.9567 111.041 58.7525 111.457C58.5483 111.874 58.1872 112.191 57.7486 112.341L43.6089 117.171" stroke="#32A18C" stroke-width="3.49516" stroke-linecap="round" stroke-linejoin="round"/>
<path d="M37.8002 105.305L29.0893 123.054L20.2147 118.698" stroke="#32A18C" stroke-width="3.49516" stroke-linecap="round" stroke-linejoin="round"/>
</svg>
