<svg width="49" height="49" viewBox="0 0 49 49" fill="none" xmlns="http://www.w3.org/2000/svg">
<path d="M10.7568 21.4375C10.7568 19.6328 11.1122 17.8457 11.8029 16.1783C12.4935 14.511 13.5058 12.996 14.782 11.7198C16.0581 10.4436 17.5732 9.43135 19.2405 8.7407C20.9079 8.05005 22.695 7.69458 24.4997 7.69458C26.3045 7.69458 28.0916 8.05005 29.7589 8.7407C31.4263 9.43135 32.9413 10.4436 34.2175 11.7198C35.4936 12.996 36.5059 14.511 37.1966 16.1783C37.8872 17.8457 38.2427 19.6328 38.2427 21.4375V21.4375C38.2427 28.2899 39.6782 32.2711 40.9415 34.4532C41.0757 34.6856 41.1464 34.9491 41.1467 35.2175C41.1469 35.4858 41.0766 35.7495 40.9429 35.9821C40.8091 36.2147 40.6166 36.4081 40.3846 36.5429C40.1525 36.6777 39.8892 36.7491 39.6208 36.75H9.37864C9.11031 36.7491 8.84693 36.6777 8.61491 36.5429C8.38288 36.4081 8.19034 36.2147 8.05658 35.9821C7.92283 35.7495 7.85255 35.4858 7.85278 35.2175C7.85302 34.9491 7.92377 34.6856 8.05794 34.4532C9.32122 32.2711 10.7568 28.2899 10.7568 21.4375Z" stroke="#5FB0D1" stroke-width="2" stroke-linecap="round" stroke-linejoin="round"/>
<path d="M18.375 36.75V38.2812C18.375 39.9057 19.0203 41.4636 20.169 42.6123C21.3176 43.7609 22.8755 44.4062 24.5 44.4062C26.1245 44.4062 27.6824 43.7609 28.831 42.6123C29.9797 41.4636 30.625 39.9057 30.625 38.2812V36.75" stroke="#5FB0D1" stroke-width="2" stroke-linecap="round" stroke-linejoin="round"/>
<path d="M35.104 4.59375C38.2217 6.56181 40.738 9.34957 42.3774 12.652" stroke="#5FB0D1" stroke-width="2" stroke-linecap="round" stroke-linejoin="round"/>
<path d="M6.62256 12.652C8.262 9.34957 10.7783 6.56181 13.896 4.59375" stroke="#5FB0D1" stroke-width="2" stroke-linecap="round" stroke-linejoin="round"/>
</svg>
