<svg width="42" height="38" viewBox="0 0 42 38" fill="none" xmlns="http://www.w3.org/2000/svg">
<path d="M36.8871 9.4201H5.23464C3.04949 9.4201 1.27808 11.177 1.27808 13.3443V32.9651C1.27808 35.1323 3.04949 36.8892 5.23464 36.8892H36.8871C39.0723 36.8892 40.8437 35.1323 40.8437 32.9651V13.3443C40.8437 11.177 39.0723 9.4201 36.8871 9.4201Z" stroke="#5FB0D1" stroke-width="2" stroke-linecap="round" stroke-linejoin="round"/>
<path d="M28.9742 36.8891V5.49592C28.9742 4.45518 28.5573 3.45705 27.8153 2.72113C27.0733 1.98521 26.067 1.57178 25.0176 1.57178H17.1045C16.0552 1.57178 15.0488 1.98521 14.3068 2.72113C13.5648 3.45705 13.1479 4.45518 13.1479 5.49592V36.8891" stroke="#5FB0D1" stroke-width="2" stroke-linecap="round" stroke-linejoin="round"/>
</svg>
