<svg width="100" height="99" viewBox="0 0 100 99" fill="none" xmlns="http://www.w3.org/2000/svg">
<path d="M54.906 3.2141L54.906 3.21413L99 42.8995V85.7875C99 89.0585 97.7006 92.1955 95.3876 94.5085C93.0747 96.8214 89.9377 98.1208 86.6667 98.1208H13.3333C10.0623 98.1208 6.9253 96.8214 4.61235 94.5085C2.2994 92.1955 1 89.0585 1 85.7875V42.8995L45.094 3.21413L45.094 3.2141C46.4406 2.00204 48.1882 1.33136 50 1.33136C51.8118 1.33136 53.5594 2.00204 54.906 3.2141ZM62.5 91.775H63.5V90.775V69.8333C63.5 66.2529 62.0777 62.8191 59.5459 60.2874C57.0142 57.7557 53.5804 56.3333 50 56.3333C46.4196 56.3333 42.9858 57.7557 40.4541 60.2874C37.9223 62.8191 36.5 66.2529 36.5 69.8333V90.775V91.775H37.5H62.5ZM69.8333 90.775V91.775H70.8333H86.6667C88.258 91.775 89.7841 91.1429 90.9093 90.0176C92.0345 88.8924 92.6667 87.3663 92.6667 85.775V46.1625V45.7171L92.3356 45.4192L50.669 7.91921L50 7.31714L49.331 7.91921L7.66437 45.4192L7.33333 45.7171V46.1625V85.775C7.33333 87.3663 7.96547 88.8924 9.09069 90.0176C10.2159 91.1429 11.742 91.775 13.3333 91.775H29.1667H30.1667V90.775V69.8333C30.1667 64.5732 32.2562 59.5285 35.9757 55.8091C39.6952 52.0896 44.7399 50 50 50C55.2601 50 60.3048 52.0896 64.0243 55.8091C67.7438 59.5285 69.8333 64.5732 69.8333 69.8333V90.775Z" fill="#5FB0D1" stroke="white" stroke-width="2"/>
</svg>
