<svg width="100" height="104" viewBox="0 0 100 104" fill="none" xmlns="http://www.w3.org/2000/svg">
<g clip-path="url(#clip0_1305_594)">
<path d="M18.5875 64H17.2404L17.6303 65.2894C19.9307 72.8973 24.1645 79.723 29.8896 85.044C35.615 90.3653 42.6194 93.9841 50.1652 95.5137C57.7112 97.0434 65.5142 96.4259 72.7492 93.7277C79.835 91.0851 86.1153 86.5441 90.959 80.573H90.9827L91.283 80.195C91.8231 79.5152 92.5923 79.0957 93.4162 79.0142C94.2396 78.9327 95.0664 79.1936 95.715 79.7508C96.365 80.3093 96.7834 81.1217 96.865 82.0139C96.9467 82.9062 96.6832 83.7904 96.142 84.4716L96.1413 84.4725C90.3921 91.7266 82.8291 97.1801 74.2923 100.235C65.7559 103.289 56.5749 103.827 47.7638 101.791C38.9525 99.7537 30.85 95.22 24.355 88.6858C17.8597 82.1514 13.2257 73.8712 10.9707 64.7598L10.7827 64H10H4.16667C3.33975 64 2.53838 63.6587 1.94122 63.0377C1.34278 62.4153 1 61.5631 1 60.6667C1 59.7702 1.34278 58.918 1.94122 58.2956C2.53838 57.6746 3.33975 57.3333 4.16667 57.3333H8.54583H9.63048L9.54254 56.2523C9.42646 54.8251 9.33333 53.4232 9.33333 52C9.33333 50.5768 9.42646 49.1749 9.54254 47.7477L9.63048 46.6667H8.54583H4.16667C3.33975 46.6667 2.53838 46.3254 1.94122 45.7044C1.34278 45.082 1 44.2298 1 43.3333C1 42.4369 1.34278 41.5847 1.94122 40.9623C2.53838 40.3413 3.33975 40 4.16667 40H10H10.7824L10.9706 39.2406C13.2282 30.1339 17.8624 21.8586 24.3561 15.328C30.8495 8.79779 38.9488 4.26654 47.7564 2.23008C56.5638 0.193674 65.7409 0.730066 74.2746 3.78081C82.8087 6.83168 90.3705 12.2797 96.1208 19.5278L96.1212 19.5284C96.3888 19.8652 96.5916 20.2557 96.7162 20.6781C96.8409 21.1005 96.8845 21.5451 96.8442 21.9861C96.8038 22.4271 96.6804 22.8542 96.4823 23.2428C96.2842 23.6313 96.0157 23.9728 95.6941 24.2492C95.3726 24.5255 95.0041 24.7313 94.6103 24.857C94.2167 24.9827 93.804 25.0263 93.3954 24.9858C92.9867 24.9454 92.5881 24.8215 92.2223 24.6198C91.8564 24.418 91.5297 24.1417 91.2622 23.805C86.3787 17.6474 79.9837 12.9704 72.7492 10.2723C65.5142 7.57407 57.7112 6.95663 50.1652 8.48626C42.6194 10.0159 35.615 13.6347 29.8896 18.956C24.1645 24.277 19.9307 31.1027 17.6303 38.7106L17.2404 40H18.5875H62.5C63.3269 40 64.1283 40.3413 64.7254 40.9623C65.3239 41.5847 65.6667 42.4369 65.6667 43.3333C65.6667 44.2298 65.3239 45.082 64.7254 45.7044C64.1283 46.3254 63.3269 46.6667 62.5 46.6667H16.8792H15.9727L15.884 47.5688C15.5942 50.5153 15.5942 53.4847 15.884 56.4312L15.9727 57.3333H16.8792H62.5C63.3269 57.3333 64.1283 57.6746 64.7254 58.2956C65.3239 58.918 65.6667 59.7702 65.6667 60.6667C65.6667 61.5631 65.3239 62.4153 64.7254 63.0377C64.1283 63.6587 63.3269 64 62.5 64H18.5875Z" fill="#5FB0D1" stroke="white" stroke-width="2"/>
</g>
<defs>
<clipPath id="clip0_1305_594">
<rect width="100" height="104" fill="white"/>
</clipPath>
</defs>
</svg>
