<svg width="100" height="92" viewBox="0 0 100 92" fill="none" xmlns="http://www.w3.org/2000/svg">
<path d="M46.8333 75.1667V74.1667H45.8333H1V12.6667C1 9.61667 2.2116 6.6916 4.36827 4.53493C6.52494 2.37826 9.45001 1.16666 12.5 1.16666H87.5C90.55 1.16666 93.4751 2.37826 95.6317 4.53493C97.7884 6.6916 99 9.61667 99 12.6667V74.1667H54.1667H53.1667V75.1667V83.5V84.5H54.1667H74V90.8333H26V84.5H45.8333H46.8333V83.5V75.1667ZM91.6667 51.1667H92.6667V50.1667V12.6667C92.6667 11.2964 92.1223 9.98221 91.1534 9.01327C90.1844 8.04433 88.8703 7.49999 87.5 7.49999H12.5C11.1297 7.49999 9.81555 8.04433 8.84661 9.01327C7.87768 9.98221 7.33333 11.2964 7.33333 12.6667V50.1667V51.1667H8.33333H91.6667ZM8.33333 57.5H7.33333V58.5V66.8333V67.8333H8.33333H91.6667H92.6667V66.8333V58.5V57.5H91.6667H8.33333Z" fill="#5FB0D1" stroke="white" stroke-width="2"/>
</svg>
