<svg width="100" height="92" viewBox="0 0 100 92" fill="none" xmlns="http://www.w3.org/2000/svg">
<path d="M95.6304 42.2071L95.8149 42.3916C97.8693 44.54 99 47.3497 99 50.3333C99 53.405 97.8016 56.2928 95.6298 58.4685L67.6846 86.4137C64.726 89.3723 60.7927 91.0042 56.6083 91.0042H50C48.2488 91.0042 46.8333 89.5859 46.8333 87.8375V81.2292C46.8333 77.0443 48.4614 73.1114 51.4233 70.1534L51.4238 70.153L79.3696 42.2071C83.8541 37.7226 91.1459 37.7226 95.6304 42.2071ZM83.848 46.6795L83.8471 46.6804L55.9012 74.6262L55.9003 74.6272C54.1645 76.3677 53.1667 78.767 53.1667 81.225V83.6667V84.6667H54.1667H56.6083C59.0988 84.6667 61.4447 83.6945 63.2071 81.9321L91.1529 53.9863C92.1278 53.0114 92.6667 51.7113 92.6667 50.3333C92.6667 48.9554 92.1278 47.6553 91.1529 46.6804C89.1321 44.6596 85.8663 44.6663 83.848 46.6795ZM25 45.1667H24V46.1667V50.3333C24 53.1808 26.3137 55.5 29.1667 55.5H37.5C40.3523 55.5 42.6667 53.1856 42.6667 50.3333C42.6667 48.585 44.0821 47.1667 45.8333 47.1667C47.5846 47.1667 49 48.585 49 50.3333C49 56.6727 43.8394 61.8333 37.5 61.8333H29.1667C22.8273 61.8333 17.6667 56.6727 17.6667 50.3333V46.1667V45.1667H16.6667C14.9154 45.1667 13.5 43.7484 13.5 42C13.5 40.2516 14.9154 38.8333 16.6667 38.8333H17.6667V37.8333V33.6667C17.6667 27.3273 22.8273 22.1667 29.1667 22.1667H37.5C43.8394 22.1667 49 27.3273 49 33.6667C49 35.415 47.5846 36.8333 45.8333 36.8333C44.0828 36.8333 42.6667 35.4115 42.6667 33.6667C42.6667 30.8192 40.3529 28.5 37.5 28.5H29.1667C26.3137 28.5 24 30.8192 24 33.6667V37.8333V38.8333H25H33.3333C35.0846 38.8333 36.5 40.2516 36.5 42C36.5 43.7484 35.0846 45.1667 33.3333 45.1667H25ZM99 21.1667V25.3333C99 27.0817 97.5846 28.5 95.8333 28.5C94.0821 28.5 92.6667 27.0817 92.6667 25.3333V21.1667C92.6667 13.7227 86.6106 7.66668 79.1667 7.66668H20.8333C13.3894 7.66668 7.33333 13.7227 7.33333 21.1667V62.8333C7.33333 70.2773 13.3894 76.3334 20.8333 76.3334H33.3333C35.0846 76.3334 36.5 77.7516 36.5 79.5C36.5 81.2484 35.0846 82.6667 33.3333 82.6667H20.8333C9.89812 82.6667 1 73.7686 1 62.8333V21.1667C1 10.2315 9.89812 1.33334 20.8333 1.33334H79.1667C90.1019 1.33334 99 10.2315 99 21.1667ZM79.1667 28.5H62.5C60.7488 28.5 59.3333 27.0817 59.3333 25.3333C59.3333 23.585 60.7488 22.1667 62.5 22.1667H79.1667C80.9179 22.1667 82.3333 23.585 82.3333 25.3333C82.3333 27.0817 80.9179 28.5 79.1667 28.5ZM62.5 45.1667C60.7523 45.1667 59.3333 43.7477 59.3333 42C59.3333 40.2523 60.7523 38.8333 62.5 38.8333C64.2477 38.8333 65.6667 40.2523 65.6667 42C65.6667 43.7477 64.2477 45.1667 62.5 45.1667Z" fill="#5FB0D1" stroke="white" stroke-width="2"/>
</svg>
