<svg width="60" height="60" viewBox="0 0 60 60" fill="none" xmlns="http://www.w3.org/2000/svg">
<path d="M41.9963 45.1751V42.0573C41.9963 40.4034 41.3894 38.8174 40.3091 37.6479C39.2288 36.4785 37.7635 35.8215 36.2358 35.8215H24.7147C23.1869 35.8215 21.7216 36.4785 20.6413 37.6479C19.561 38.8174 18.9541 40.4034 18.9541 42.0573V45.1751" stroke="#5FB0D1" stroke-width="2" stroke-linecap="round" stroke-linejoin="round"/>
<path d="M30.4752 29.5859C33.6566 29.5859 36.2357 26.7941 36.2357 23.3502C36.2357 19.9062 33.6566 17.1144 30.4752 17.1144C27.2937 17.1144 24.7146 19.9062 24.7146 23.3502C24.7146 26.7941 27.2937 29.5859 30.4752 29.5859Z" stroke="#5FB0D1" stroke-width="2" stroke-linecap="round" stroke-linejoin="round"/>
<path d="M1 29.6979C1 13.858 13.9742 0.999981 30 0.999981C46.0258 0.999981 59 13.858 59 29.6979C59 45.5378 46.0258 58.3958 30 58.3958C13.9742 58.3958 1 45.5378 1 29.6979Z" stroke="#5FB0D1" stroke-width="2"/>
</svg>
