<svg width="1920" height="1080" viewBox="0 0 1920 1080" fill="none" xmlns="http://www.w3.org/2000/svg">
<rect width="1920" height="1134" fill="#60B1D2"/>
<circle cx="149" cy="129" r="95" stroke="#42C6AD" stroke-width="8"/>
<circle cx="149" cy="129" r="71" stroke="#42C6AD" stroke-width="8"/>
<rect x="1919.75" y="0.752808" width="60" height="60" transform="rotate(90.1797 1919.75 0.752808)" fill="#37759F"/>
<rect x="1919.56" y="60.7525" width="60" height="60" transform="rotate(90.1797 1919.56 60.7525)" fill="#37759F"/>
<rect x="1859.75" y="0.564575" width="60" height="60" transform="rotate(90.1797 1859.75 0.564575)" fill="#37759F"/>
<rect x="1919.38" y="120.752" width="60" height="60" transform="rotate(90.1797 1919.38 120.752)" fill="#37759F"/>
<rect x="1859.56" y="60.5643" width="60" height="60" transform="rotate(90.1797 1859.56 60.5643)" fill="#37759F"/>
<rect x="1859.38" y="120.564" width="60" height="60" transform="rotate(90.1797 1859.38 120.564)" fill="#37759F"/>
<rect x="1919.19" y="180.752" width="60" height="60" transform="rotate(90.1797 1919.19 180.752)" fill="#37759F"/>
<rect x="1799.75" y="0.376404" width="60" height="60" transform="rotate(90.1797 1799.75 0.376404)" fill="#37759F"/>
<rect x="1799.56" y="60.3761" width="60" height="60" transform="rotate(90.1797 1799.56 60.3761)" fill="#37759F"/>
<rect x="1739.75" y="0.188171" width="60" height="60" transform="rotate(90.1797 1739.75 0.188171)" fill="#37759F"/>
<rect x="-1.47693" y="1084.52" width="60" height="60" transform="rotate(-90 -1.47693 1084.52)" fill="#37759F"/>
<rect x="-1.47693" y="1024.52" width="60" height="60" transform="rotate(-90 -1.47693 1024.52)" fill="#37759F"/>
<rect x="58.5231" y="1084.52" width="60" height="60" transform="rotate(-90 58.5231 1084.52)" fill="#37759F"/>
<rect x="-1.47693" y="964.523" width="60" height="60" transform="rotate(-90 -1.47693 964.523)" fill="#37759F"/>
<rect x="58.5231" y="1024.52" width="60" height="60" transform="rotate(-90 58.5231 1024.52)" fill="#37759F"/>
<rect x="58.5231" y="964.523" width="60" height="60" transform="rotate(-90 58.5231 964.523)" fill="#37759F"/>
<rect x="-1.47693" y="904.523" width="60" height="60" transform="rotate(-90 -1.47693 904.523)" fill="#37759F"/>
<rect x="118.523" y="1084.52" width="60" height="60" transform="rotate(-90 118.523 1084.52)" fill="#37759F"/>
<rect x="118.523" y="1024.52" width="60" height="60" transform="rotate(-90 118.523 1024.52)" fill="#37759F"/>
<rect x="178.523" y="1084.52" width="60" height="60" transform="rotate(-90 178.523 1084.52)" fill="#37759F"/>
<line x1="1490.88" y1="1035.43" x2="1844.43" y2="681.879" stroke="#42C6AD" stroke-width="6"/>
<line x1="1534.88" y1="1051.08" x2="1853.08" y2="732.879" stroke="#42C6AD" stroke-width="6"/>
<line x1="1582.88" y1="1060.72" x2="1865.72" y2="777.879" stroke="#42C6AD" stroke-width="6"/>
<line x1="1634.88" y1="1072.37" x2="1882.37" y2="824.879" stroke="#42C6AD" stroke-width="6"/>
</svg>
