<svg width="835" height="901" viewBox="0 0 835 901" fill="none" xmlns="http://www.w3.org/2000/svg">
<rect width="835" height="901" fill="#60B1D2"/>
<rect x="835" y="901" width="60" height="60.0667" transform="rotate(-180 835 901)" fill="#37759F"/>
<rect x="775" y="901" width="60" height="60.0667" transform="rotate(-180 775 901)" fill="#37759F"/>
<rect x="835" y="840.933" width="60" height="60.0667" transform="rotate(-180 835 840.933)" fill="#37759F"/>
<rect x="715" y="901" width="60" height="60.0667" transform="rotate(-180 715 901)" fill="#37759F"/>
<rect x="775" y="840.933" width="60" height="60.0667" transform="rotate(-180 775 840.933)" fill="#37759F"/>
<rect x="715" y="840.933" width="60" height="60.0667" transform="rotate(-180 715 840.933)" fill="#37759F"/>
<rect x="655" y="901" width="60" height="60.0667" transform="rotate(-180 655 901)" fill="#37759F"/>
<rect x="835" y="780.867" width="60" height="60.0667" transform="rotate(-180 835 780.867)" fill="#37759F"/>
<rect x="775" y="780.867" width="60" height="60.0667" transform="rotate(-180 775 780.867)" fill="#37759F"/>
<rect x="835" y="720.8" width="60" height="60.0667" transform="rotate(-180 835 720.8)" fill="#37759F"/>
<rect width="60" height="60.0667" fill="#37759F"/>
<rect x="60" width="60" height="60.0667" fill="#37759F"/>
<rect y="60.0667" width="60" height="60.0667" fill="#37759F"/>
<rect x="120" width="60" height="60.0667" fill="#37759F"/>
<rect x="60" y="60.0667" width="60" height="60.0667" fill="#37759F"/>
<rect x="120" y="60.0667" width="60" height="60.0667" fill="#37759F"/>
<rect x="180" width="60" height="60.0667" fill="#37759F"/>
<rect y="120.133" width="60" height="60.0667" fill="#37759F"/>
<rect x="60" y="120.133" width="60" height="60.0667" fill="#37759F"/>
<rect y="180.2" width="60" height="60.0667" fill="#37759F"/>
</svg>
